# xmcd
#
# Track frame offsets: 
#        182
#        23137
#        39937
#        61985
#        80825
#        97332
#        122212
#        143680
#        169637
#
# Disc length: 2532 seconds
#
# Revision: 7
# Processed by: cddbd v1.5.1PL2 Copyright (c) Steve Scherf et al.
# Submitted via: ExactAudioCopy v0.95b3
#
DISCID=7609e209
DTITLE=Kate Wolf - Gold In California [CD2]
DYEAR=1986
DGENRE=Folk
TTITLE0=The Sun Is Burning
TTITLE1=Brother Warrior
TTITLE2=Two-Way Waltz
TTITLE3=Eyes Of A Painter
TTITLE4=Emma Rose
TTITLE5=Here In California
TTITLE6=Poet's Heart
TTITLE7=Carolina Pines
TTITLE8=The Trumpet Vine
EXTD=ID3G: 80
EXTT0=
EXTT1=
EXTT2=
EXTT3=
EXTT4=
EXTT5=
EXTT6=
EXTT7=
EXTT8=
PLAYORDER=
